<?xml version="1.0" encoding="UTF-8"?>
<svg id="Layer_1" data-name="Layer 1" xmlns="http://www.w3.org/2000/svg" viewBox="0 0 179 62">
  <defs>
    <style>
      .cls-1 {
        font-family: Poppins-SemiBold, Poppins;
        font-size: 29.8px;
      }

      .cls-1, .cls-2, .cls-3, .cls-4 {
        fill: #2b2a4c;
      }

      .cls-5, .cls-3, .cls-6 {
        opacity: .15;
      }

      .cls-5, .cls-7 {
        fill: #0067fc;
      }

      .cls-8, .cls-6 {
        fill: #02c45f;
      }

      .cls-4 {
        font-family: Poppins-Light, Poppins;
        font-size: 28.04px;
      }
    </style>
  </defs>
  <g>
    <circle class="cls-7" cx="6.47" cy="43.94" r="5.16"/>
    <circle class="cls-2" cx="28.32" cy="5.69" r="5.16"/>
    <circle class="cls-8" cx="50.18" cy="43.94" r="5.16"/>
    <path class="cls-7" d="M14.66,29.06c2.55-4.5,4.86-8.5,9.76-12.43,4.04-3.24,9-5.31,14.13-5.99,3.08-.41,6.33-.27,9.13,1.09,6.52,3.16,7.74,11.13,4.67,17.19-.1-3.15-.62-6.52-2.77-8.83-2.48-2.67-6.55-3.23-10.15-2.65-7.23,1.17-13.48,6.38-16.72,12.94-.53,1.08-1.38,2.93-1.38,2.93"/>
    <path class="cls-2" d="M37.73,21.78s1.1,1.5,1.48,2.21c3.33,6.38,4.11,13.72,3.32,20.82-.03,.25-.06,.49-.09,.74-.5,3.94-1.79,7.86-4.29,10.95s-6.32,5.23-10.29,5.13c-4.47-.12-8.62-3.19-10.46-7.27,2.88,2.03,6.55,3.44,9.92,2.41,2.79-.85,4.87-3.23,6.23-5.81,3.7-7.04,2.35-20.07-1.9-25.53"/>
    <path class="cls-8" d="M31.66,44.85c-1.49-.05,1.21,0,0,0-7.28,0-12.87-1.73-16.26-3.38-4.74-2.31-8.92-5.84-11.74-10.29C1.29,27.41-.05,22.6,1.7,18.52c1-2.33,2.93-4.18,5.16-5.39s4.75-1.78,7.28-2.02c-3.03,1.84-6.06,4.26-6.93,7.69-.49,1.92-.22,3.99,.52,5.83,.74,1.84,1.94,3.47,3.3,4.91,4.82,5.09,12.14,9.23,21.25,8.01"/>
    <path class="cls-6" d="M44.41,38.78c0-3.64-.61-6.07-.61-6.07,2.61-2.02,5.81-6.61,5.19-9.85,1.94,2.97,2.71,6.79,.85,9.9s-4.14,4.82-5.43,6.02"/>
    <path class="cls-3" d="M25.29,13.83c-3.07,1.96-4.79,3.78-4.79,3.78-3.1-1.11-8.7-1.33-11.09,.94,1.46-3.24,4.26-5.94,7.88-6.05,3.47-.1,6.29,.89,7.99,1.33"/>
    <path class="cls-5" d="M13.21,42.66c3.21,1.73,5.63,2.35,5.63,2.35,.54,3.25,3.07,8.25,6.21,9.24-3.54,.3-7.26-.84-9.12-3.95-1.78-2.99-2.27-5.93-2.72-7.63"/>
  </g>
  <g>
    <text class="cls-1" transform="translate(68.02 32.88)"><tspan x="0" y="0">Fokus</tspan></text>
    <text class="cls-4" transform="translate(67.76 56.65)"><tspan x="0" y="0">Network</tspan></text>
  </g>
</svg>