<svg xmlns="http://www.w3.org/2000/svg" width="120" height="68" viewBox="0 0 120 68" fill="none"><path d="M17.3003 8.06501C16.781 7.40901 16.0703 6.93067 15.1683 6.63001C14.2937 6.30201 13.46 6.13801 12.6673 6.13801C12.2027 6.13801 11.7243 6.19268 11.2323 6.30201C10.7403 6.41134 10.2757 6.58901 9.83834 6.83501C9.40101 7.05368 9.04568 7.35434 8.77234 7.73701C8.49901 8.11967 8.36234 8.58434 8.36234 9.13101C8.36234 10.0057 8.69034 10.6753 9.34634 11.14C10.0023 11.6047 10.8223 12.001 11.8063 12.329C12.8177 12.657 13.8973 12.985 15.0453 13.313C16.1933 13.641 17.2593 14.1057 18.2433 14.707C19.2547 15.3083 20.0883 16.1147 20.7443 17.126C21.4003 18.1373 21.7283 19.4903 21.7283 21.185C21.7283 22.7977 21.4277 24.2053 20.8263 25.408C20.225 26.6107 19.405 27.6083 18.3663 28.401C17.355 29.1937 16.166 29.7813 14.7993 30.164C13.46 30.5467 12.0387 30.738 10.5353 30.738C8.64934 30.738 6.90001 30.451 5.28734 29.877C3.67468 29.303 2.17134 28.3737 0.777344 27.089L5.32834 22.087C5.98434 22.9617 6.80434 23.645 7.78834 24.137C8.79968 24.6017 9.83834 24.834 10.9043 24.834C11.4237 24.834 11.943 24.7793 12.4623 24.67C13.009 24.5333 13.4873 24.342 13.8973 24.096C14.3347 23.85 14.6763 23.5357 14.9223 23.153C15.1957 22.7703 15.3323 22.3193 15.3323 21.8C15.3323 20.9253 14.9907 20.242 14.3073 19.75C13.6513 19.2307 12.8177 18.7933 11.8063 18.438C10.795 18.0827 9.70168 17.7273 8.52634 17.372C7.35101 17.0167 6.25768 16.5383 5.24634 15.937C4.23501 15.3357 3.38768 14.543 2.70434 13.559C2.04834 12.575 1.72034 11.2767 1.72034 9.66401C1.72034 8.10601 2.02101 6.73934 2.62234 5.56401C3.25101 4.38867 4.07101 3.40467 5.08234 2.61201C6.12101 1.81934 7.31001 1.23167 8.64934 0.849008C9.98868 0.439009 11.369 0.234009 12.7903 0.234009C14.4303 0.234009 16.0157 0.466342 17.5463 0.931007C19.077 1.39567 20.4573 2.17467 21.6873 3.26801L17.3003 8.06501Z" fill="black"></path><path d="M31.2903 6.63001H23.0083V0.972009H45.9683V6.63001H37.6863V30H31.2903V6.63001Z" fill="black"></path><path d="M54.1856 0.972009H59.4746L72.1026 30H64.8866L62.3856 23.85H51.1106L48.6916 30H41.6396L54.1856 0.972009ZM56.6456 9.41801L53.1196 18.438H60.2126L56.6456 9.41801Z" fill="black"></path><path d="M74.2023 0.972009H85.4363C86.9123 0.972009 88.3063 1.12234 89.6183 1.42301C90.9576 1.69634 92.1193 2.17467 93.1033 2.85801C94.1146 3.51401 94.9073 4.41601 95.4813 5.56401C96.0826 6.68468 96.3833 8.09234 96.3833 9.78701C96.3833 11.837 95.8503 13.5863 94.7843 15.035C93.7183 16.4563 92.1603 17.3583 90.1103 17.741L97.4903 30H89.8233L83.7553 18.397H80.5983V30H74.2023V0.972009ZM80.5983 12.985H84.3703C84.9443 12.985 85.5456 12.9713 86.1743 12.944C86.8303 12.8893 87.4179 12.7663 87.9373 12.575C88.4566 12.3563 88.8803 12.0283 89.2083 11.591C89.5636 11.1537 89.7413 10.5387 89.7413 9.74601C89.7413 9.00801 89.5909 8.42034 89.2903 7.98301C88.9896 7.54568 88.6069 7.21767 88.1423 6.99901C87.6776 6.75301 87.1446 6.58901 86.5433 6.50701C85.9419 6.42501 85.3543 6.38401 84.7803 6.38401H80.5983V12.985Z" fill="black"></path><path d="M104.864 6.63001H96.5825V0.972009H119.542V6.63001H111.26V30H104.864V6.63001Z" fill="black"></path><path d="M3.19634 38.972H22.6713V44.876H9.59234V50.78H21.6873V56.684H9.59234V68H3.19634V38.972Z" fill="black"></path><path d="M26.6801 38.972H46.4011V44.876H33.0761V50.288H45.6631V56.192H33.0761V62.096H47.1391V68H26.6801V38.972Z" fill="black"></path><path d="M51.6852 38.972H58.0812V62.096H69.9303V68H51.6852V38.972Z" fill="black"></path><path d="M72.6407 38.972H82.2347C84.5581 38.972 86.7584 39.2317 88.8357 39.751C90.9404 40.2703 92.7717 41.1177 94.3297 42.293C95.8877 43.441 97.1177 44.9443 98.0197 46.803C98.9491 48.6617 99.4137 50.9167 99.4137 53.568C99.4137 55.9187 98.9627 57.996 98.0607 59.8C97.1861 61.5767 95.9971 63.08 94.4937 64.31C92.9904 65.5127 91.2547 66.4283 89.2867 67.057C87.3187 67.6857 85.2551 68 83.0957 68H72.6407V38.972ZM79.0367 62.096H82.3577C83.8337 62.096 85.2004 61.9457 86.4577 61.645C87.7424 61.3443 88.8494 60.8523 89.7787 60.169C90.7081 59.4583 91.4324 58.5427 91.9517 57.422C92.4984 56.274 92.7717 54.88 92.7717 53.24C92.7717 51.8187 92.4984 50.5887 91.9517 49.55C91.4324 48.484 90.7217 47.6093 89.8197 46.926C88.9177 46.2427 87.8517 45.737 86.6217 45.409C85.4191 45.0537 84.1481 44.876 82.8087 44.876H79.0367V62.096Z" fill="black"></path></svg>